{"title":"Fatal Attraction (Ladies vs Ricky Bahl) - Full Song - H.264 - 72","uid":6970418,"size":86085430,"categoryP":"video","categoryS":"music_videos","magnet":"?xt=urn:btih:1d062823edfdea0b6022814da84333f690180bc3&amp;dn=Fatal+Attraction+%28Ladies+vs+Ricky+Bahl%29+-+Full+Song+-+H.264+-+72&amp;tr=udp%3A%2F%2Ftracker.openbittorrent.com%3A80&amp;tr=udp%3A%2F%2Fopen.demonii.com%3A1337&amp;tr=udp%3A%2F%2Ftracker.coppersurfer.tk%3A6969&amp;tr=udp%3A%2F%2Fexodus.desync.com%3A6969","seeders":2,"leechers":0,"uploader":"AbhiHKRG","files":6,"time":1327074328,"description":"COVER ::\n &lt;a href=&quot;\nhttp://i.minus.com/idBC9I8B5jkEN.png&quot; rel=&quot;nofollow&quot; target=&quot;_NEW&quot;&gt;\nhttp://i.minus.com/idBC9I8B5jkEN.png&lt;/a&gt;\n\n\nSCREEN ::\n &lt;a href=&quot;\nhttp://i.minus.com/ibtMd6ju6NiyZr.png&quot; rel=&quot;nofollow&quot; target=&quot;_NEW&quot;&gt;\nhttp://i.minus.com/ibtMd6ju6NiyZr.png&lt;/a&gt;\n &lt;a href=&quot;\nhttp://i.minus.com/i6ug4Awk94wdl.png&quot; rel=&quot;nofollow&quot; target=&quot;_NEW&quot;&gt;\nhttp://i.minus.com/i6ug4Awk94wdl.png&lt;/a&gt;\n &lt;a href=&quot;\nhttp://i.minus.com/ikO6MjbU4LJM9.png&quot; rel=&quot;nofollow&quot; target=&quot;_NEW&quot;&gt;\nhttp://i.minus.com/ikO6MjbU4LJM9.png&lt;/a&gt;\n &lt;a href=&quot;\nhttp://i.minus.com/iR5skn0Sg3v1p.png&quot; rel=&quot;nofollow&quot; target=&quot;_NEW&quot;&gt;\nhttp://i.minus.com/iR5skn0Sg3v1p.png&lt;/a&gt;\n &lt;a href=&quot;\nhttp://i.minus.com/iboGklcmLGu2qV.png&quot; rel=&quot;nofollow&quot; target=&quot;_NEW&quot;&gt;\nhttp://i.minus.com/iboGklcmLGu2qV.png&lt;/a&gt;\n &lt;a href=&quot;\nhttp://i.minus.com/ig2eOdSCC7k6g.png&quot; rel=&quot;nofollow&quot; target=&quot;_NEW&quot;&gt;\nhttp://i.minus.com/ig2eOdSCC7k6g.png&lt;/a&gt;\n &lt;a href=&quot;\nhttp://i.minus.com/ibsUTh6V8XHbzH.png&quot; rel=&quot;nofollow&quot; target=&quot;_NEW&quot;&gt;\nhttp://i.minus.com/ibsUTh6V8XHbzH.png&lt;/a&gt;\n &lt;a href=&quot;\nhttp://i.minus.com/igiURAuBzM1DY.jpg&quot; rel=&quot;nofollow&quot; target=&quot;_NEW&quot;&gt;\nhttp://i.minus.com/igiURAuBzM1DY.jpg&lt;/a&gt;\n\n\nGeneral Info ::\nFormat                           : AVI\nFormat/Info                      : Audio Video Interleave\nFile size                        : 82.1 MiB\nDuration                         : 3mn 56s\nOverall bit rate                 : 2 909 Kbps\n\n\nVideo Info ::\nID                               : 0\nFormat                           : AVC\nFormat/Info                      : Advanced Video Codec\nFormat profile                   : &lt;a class=&quot;__cf_email__&quot; href=&quot;/cdn-cgi/l/email-protection&quot; data-cfemail=&quot;a2eacbc5cae2ee978c93&quot;&gt;[email&amp;#160;protected]&lt;/a&gt;&lt;script cf-hash='f9e31' type=&quot;text/javascript&quot;&gt;\n/* &lt;![CDATA[ */!function(){try{var t=&quot;currentScript&quot;in document?document.currentScript:function(){for(var t=document.getElementsByTagName(&quot;script&quot;),e=t.length;e--;)if(t[e].getAttribute(&quot;cf-hash&quot;))return t[e]}();if(t&amp;&amp;t.previousSibling){var e,r,n,i,c=t.previousSibling,a=c.getAttribute(&quot;data-cfemail&quot;);if(a){for(e=&quot;&quot;,r=parseInt(a.substr(0,2),16),n=2;a.length-n;n+=2)i=parseInt(a.substr(n,2),16)^r,e+=String.fromCharCode(i);e=document.createTextNode(e),c.parentNode.replaceChild(e,c)}}}catch(u){}}();/* ]]&gt; */&lt;/script&gt;\nFormat settings, CABAC           : Yes\nFormat settings, ReFrames        : 2 frames\nCodec ID                         : H264\nDuration                         : 10s 0ms\nBit rate                         : 2 578 Kbps\nWidth                            : 1 280 pixels\nHeight                           : 544 pixels\nDisplay aspect ratio             : 2.35:1\nFrame rate                       : 30.000 fps\nColor space                      : YUV\nChroma subsampling               : 4:2:0\nBit depth                        : 8 bits\nScan type                        : Progressive\nBits/(Pixel*Frame)               : 0.123\nStream size                      : 72.7 MiB (89%)\n\n\nAudio Info ::\nID                               : 1\nFormat                           : MPEG Audio\nFormat version                   : Version 1\nFormat profile                   : Layer 3\nCodec ID                         : 55\nCodec ID/Hint                    : MP3\nDuration                         : 3mn 56s\nBit rate mode                    : Constant\nBit rate                         : 320 Kbps\nChannel(s)                       : 2 channels\nSampling rate                    : 48.0 KHz\nCompression mode                 : Lossy\nStream size                      : 9.03 MiB (11%)","torrent":{"xt":"urn:btih:1d062823edfdea0b6022814da84333f690180bc3","amp;dn":"Fatal+Attraction+%28Ladies+vs+Ricky+Bahl%29+-+Full+Song+-+H.264+-+72","amp;tr":["udp%3A%2F%2Ftracker.openbittorrent.com%3A80","udp%3A%2F%2Fopen.demonii.com%3A1337","udp%3A%2F%2Ftracker.coppersurfer.tk%3A6969","udp%3A%2F%2Fexodus.desync.com%3A6969"],"infoHash":"1d062823edfdea0b6022814da84333f690180bc3","infoHashBuffer":{"type":"Buffer","data":[29,6,40,35,237,253,234,11,96,34,129,77,168,67,51,246,144,24,11,195]},"announce":[],"urlList":[]}}